<svg xmlns="http://www.w3.org/2000/svg" width="13.505" height="13.505" viewBox="0 0 13.505 13.505"><path d="M197.752,359.5a6.759,6.759,0,0,1-3.271-.844c.276.038.594.074.948.105.395.035.81.052,1.236.052a5.917,5.917,0,0,0,1.7-.223,4.023,4.023,0,0,0,1.252-.6,2.812,2.812,0,0,0,1.143-1.982l.464-4.773a2.348,2.348,0,0,1,.115-.525,1.2,1.2,0,0,1,.248-.42,1.094,1.094,0,0,1,.409-.276,1.591,1.591,0,0,1,.588-.1.149.149,0,0,0,.05-.01.083.083,0,0,0,.043-.056l.116-.473a.546.546,0,0,0,.015-.078c0-.035-.031-.06-.093-.073l-.486-.078c-.221-.035-.486-.07-.788-.1s-.616-.064-1-.092c-.362-.026-.733-.039-1.1-.039a7.855,7.855,0,0,0-1.36.118,4.215,4.215,0,0,0-1.221.4,2.767,2.767,0,0,0-.919.765,2.382,2.382,0,0,0-.456,1.2l-.541,4.641a2.627,2.627,0,0,1-.2.775,1.564,1.564,0,0,1-.36.512,1.286,1.286,0,0,1-.506.283,2.237,2.237,0,0,1-.63.085h0a6.752,6.752,0,1,1,4.607,1.815Zm.023-1.311h0a3.281,3.281,0,0,0,.674-.434,3.47,3.47,0,0,0,.521-.538,2.584,2.584,0,0,0,.348-.6,2.238,2.238,0,0,0,.159-.614l.471-4.773a3.09,3.09,0,0,1,.089-.479,1.139,1.139,0,0,1,.243-.456,1.351,1.351,0,0,1,.506-.345,2.567,2.567,0,0,1,.876-.157,1.246,1.246,0,0,0-.467.187,1.223,1.223,0,0,0-.325.325,1.645,1.645,0,0,0-.2.427,2.386,2.386,0,0,0-.1.5l-.464,4.773a2.127,2.127,0,0,1-.181.66,2.333,2.333,0,0,1-.433.64,2.767,2.767,0,0,1-.711.535A3.6,3.6,0,0,1,197.775,358.193Z" transform="translate(-191 -346)" fill="#133030"/></svg>