<svg xmlns="http://www.w3.org/2000/svg" width="185.665" height="160.23" viewBox="0 0 185.665 160.23">
  <g id="my-skills" transform="translate(0 0)">
    <circle id="Ellipse_31" data-name="Ellipse 31" cx="17.096" cy="17.096" r="17.096" transform="translate(84.247 10.431)" fill="#fbbebe"/>
    <path id="Path_88" data-name="Path 88" d="M574.386,260.562s3.221,24.281-1.734,27.006,29.484,2.973,29.484,2.973-7.681-21.06-4.212-27.5Z" transform="translate(-485.803 -224.487)" fill="#fbbebe"/>
    <path id="Path_89" data-name="Path 89" d="M551.593,347.831l-2.864,13.042-6.056,27.593-.181,1.511-2.09,17.494-1.39,11.622-.932,7.807c-5.668,2.913-9.776,4.924-9.776,4.924s-.353-1.772-.923-4.038c-3.978,1.193-11.338,3.171-17.576,3.566,2.271,2.532,3.315,4.91,1.9,6.665-4.273,5.291-21.913-5.793-28.083-9.927a16.7,16.7,0,0,0-.163,2.99l-4.722-3.631.467-8.355.788-14.137.99-17.729a18.622,18.622,0,0,1-.783-2.332c-1.446-5.142-3.2-15.411-4.547-24.022-1.083-6.93-1.9-12.786-2.069-14.032-.023-.163-.035-.246-.035-.246l26.138-11.55c1.858,4.308,10.531,5.6,10.531,5.6a29.092,29.092,0,0,0,12.819-4.285Z" transform="translate(-410.113 -281.654)" fill="#f2fafa"/>
    <path id="Path_90" data-name="Path 90" d="M614.164,703.748s-1.107.379-2.906.916c-3.978,1.193-11.338,3.171-17.575,3.566-5.37.344-9.908-.484-10.738-3.987a3.7,3.7,0,0,1,1.248-3.764c3.283-3.043,11.857-4.134,18.656-4.508,1.92-.1,3.7-.153,5.175-.172,2.511-.033,4.157.019,4.157.019l.039.153Z" transform="translate(-493.991 -558.532)" fill="#a0616a"/>
    <path id="Path_91" data-name="Path 91" d="M560.492,116.745l-3.2-1.28s6.684-7.358,15.982-6.718l-2.615-2.879s6.393-2.559,12.2,4.159c3.055,3.532,6.59,7.683,8.793,12.359h3.423l-1.429,3.146,5,3.146-5.132-.565a17.583,17.583,0,0,1,.139,5.218,6.751,6.751,0,0,1-2.472,4.417h0s-3.964-8.206-3.964-9.485v3.2s-3.2-2.879-3.2-4.8l-1.744,2.239-.872-3.519L570.662,128.9l1.744-2.879-6.683.96,2.615-3.519s-7.555,4.159-7.846,7.678a16.9,16.9,0,0,1-2.5,6.854S552.065,121.543,560.492,116.745Z" transform="translate(-473.371 -105.389)" fill="#2f2e41"/>
    <path id="Path_92" data-name="Path 92" d="M733.772,450c-1.741,1.888-6.056,4.731-11.287,7.809-1.946,1.144-4.017,2.322-6.13,3.494-5.042,2.8-10.322,5.568-14.679,7.807-5.668,2.913-9.776,4.924-9.776,4.924s-.353-1.771-.923-4.038c-.763-3.034-1.911-6.956-3.108-8.692-.042-.06-.084-.116-.125-.172-.349-.458-.7-.725-1.046-.725L704,449.685l7.477-4.636-5.386-12.859-6.756-16.129,4.078-12.975,4.1-13.042h7.681s2.543,5.552,5.8,13.293c.486,1.158.988,2.364,1.5,3.61C729.176,423.222,737.517,445.947,733.772,450Z" transform="translate(-573.709 -323.868)" fill="#f2fafa"/>
    <path id="Path_93" data-name="Path 93" d="M537.884,707.632c-4.273,5.291-21.914-5.793-28.084-9.927-1.344-.9-2.143-1.469-2.143-1.469l5.645-7.528,1.788-2.383s1.6.849,3.964,2.229l.26.153c2.039,1.2,4.6,2.762,7.181,4.508a54.191,54.191,0,0,1,9.49,7.751C538.256,703.5,539.3,705.876,537.884,707.632Z" transform="translate(-436.293 -551.269)" fill="#a0616a"/>
    <path id="Path_94" data-name="Path 94" d="M421.99,457.884a11.108,11.108,0,0,0-1.883.153c-5.345.918-6.921,5.756-7.37,9a16.7,16.7,0,0,0-.163,2.99l-4.722-3.631-1.72-1.323a31.353,31.353,0,0,1-11.029-7.032,55.445,55.445,0,0,1-7.428-8.809,77.679,77.679,0,0,1-5.747-9.857,7.249,7.249,0,0,1-.1-6.149l5.847-13.03,8.546-19.045q.094-.68.207-1.33c1.695-9.718,6.235-14.032,6.235-14.032h3.469l2.32,14.032,2.883,17.434-2.02,6.588-4.668,15.216,4.461,4.845Z" transform="translate(-339.23 -320.598)" fill="#f2fafa"/>
    <path id="Path_95" data-name="Path 95" d="M547.7,493.288l2.965,3.459c1.1-.21,2.252-.457,3.437-.734l-.852-2.725,2.082,2.429a281.274,281.274,0,0,0,28.113-9.09s-16.8,1.232-29.341-1.508a11.935,11.935,0,0,0-13.536,6.742c-1.324,3.025-1.116,5.645,3.579,5.645a31,31,0,0,0,4.732-.445Z" transform="translate(-461.01 -396.621)" fill="#2f7a79"/>
    <path id="Path_96" data-name="Path 96" d="M500.985,752.865v1.411a3.1,3.1,0,0,1-.212,1.132,3.179,3.179,0,0,1-.226.465,3.124,3.124,0,0,1-2.685,1.525H394.049a3.124,3.124,0,0,1-2.685-1.525,3.185,3.185,0,0,1-.225-.465,3.1,3.1,0,0,1-.212-1.132v-1.411a3.121,3.121,0,0,1,3.122-3.122h5.984v-.658a.13.13,0,0,1,.13-.13h3.122a.13.13,0,0,1,.13.13v.658h1.95v-.658a.13.13,0,0,1,.13-.13h3.122a.13.13,0,0,1,.13.13v.658H410.7v-.658a.13.13,0,0,1,.13-.13h3.122a.13.13,0,0,1,.13.13v.658h1.951v-.658a.13.13,0,0,1,.13-.13h3.122a.13.13,0,0,1,.13.13v.658h1.951v-.658a.13.13,0,0,1,.13-.13h3.122a.13.13,0,0,1,.13.13v.658H426.7v-.658a.13.13,0,0,1,.13-.13h3.122a.13.13,0,0,1,.13.13v.658h1.951v-.658a.13.13,0,0,1,.13-.13h24.457a.13.13,0,0,1,.13.13v.658h1.953v-.658a.13.13,0,0,1,.13-.13h3.122a.131.131,0,0,1,.13.13v.658h1.951v-.658a.13.13,0,0,1,.13-.13h3.122a.13.13,0,0,1,.13.13v.658h1.951v-.658a.13.13,0,0,1,.13-.13h3.122a.13.13,0,0,1,.13.13v.658h1.953v-.658a.13.13,0,0,1,.13-.13h3.122a.129.129,0,0,1,.128.13v.658h1.953v-.658a.13.13,0,0,1,.13-.13h3.122a.13.13,0,0,1,.13.13v.658h1.95v-.658a.13.13,0,0,1,.13-.13h3.122a.13.13,0,0,1,.13.13v.658h9.106A3.121,3.121,0,0,1,500.985,752.865Z" transform="translate(-346.7 -599.339)" fill="#133030"/>
    <rect id="Rectangle_18" data-name="Rectangle 18" width="170.408" height="0.465" transform="translate(14.065 156.07)" fill="#133030"/>
    <path id="Path_97" data-name="Path 97" d="M505.79,507.512H467.1v-.8H449.55v.8H410.7a2.617,2.617,0,0,0-2.617,2.617v52.985a2.617,2.617,0,0,0,2.617,2.617H505.79a2.617,2.617,0,0,0,2.617-2.617V510.129a2.617,2.617,0,0,0-2.617-2.617Z" transform="translate(-359.864 -413.414)" fill="#133030"/>
    <circle id="Ellipse_32" data-name="Ellipse 32" cx="5.812" cy="5.812" r="5.812" transform="translate(92.643 106.784)" fill="none" stroke="#b4e2e2" stroke-miterlimit="10" stroke-width="2"/>
    <circle id="Ellipse_33" data-name="Ellipse 33" cx="5.812" cy="5.812" r="5.812" transform="translate(90.783 108.876)" fill="#b4e2e2"/>
    <rect id="Rectangle_19" data-name="Rectangle 19" width="6.509" height="6.509" transform="translate(18.702 153.721)" fill="#b4e2e2"/>
    <path id="Path_98" data-name="Path 98" d="M292.136,744.612v7.9h7.9v-7.9Zm7.56,7.56h-7.219v-7.216H299.7Z" transform="translate(-270.876 -596.005)" fill="#133030"/>
    <rect id="Rectangle_20" data-name="Rectangle 20" width="6.509" height="6.509" transform="translate(169.349 153.721)" fill="#b4e2e2"/>
    <path id="Path_99" data-name="Path 99" d="M940.136,744.612v7.9h7.9v-7.9Zm7.56,7.56h-7.218v-7.216H947.7Z" transform="translate(-768.229 -596.005)" fill="#3f3d56"/>
    <circle id="Ellipse_34" data-name="Ellipse 34" cx="18.445" cy="18.445" r="18.445" transform="translate(3.543 16.607)" fill="#2f7a79"/>
    <path id="Path_100" data-name="Path 100" d="M250.025,161.353a19.939,19.939,0,0,0-5.03,0A19.614,19.614,0,0,0,228.811,175a19.348,19.348,0,0,0-.85,5.036c-.008.238-.014.478-.014.718A19.583,19.583,0,0,0,247.51,200.32c.416,0,.833-.014,1.244-.039a19.351,19.351,0,0,0,2.867-.4,19.565,19.565,0,0,0-1.6-38.531Zm3.608,37.4h0a18.808,18.808,0,0,1-4.877.97c-.411.028-.827.042-1.244.042a19.027,19.027,0,0,1-19-19c0-.24.006-.481.014-.718a19,19,0,1,1,25.113,18.711Z" transform="translate(-221.61 -148.22)" fill="#133030"/>
    <rect id="Rectangle_21" data-name="Rectangle 21" width="0.559" height="3.913" transform="translate(25.621 14.65)" fill="#133030"/>
    <rect id="Rectangle_22" data-name="Rectangle 22" width="0.559" height="3.913" transform="translate(13.056 20.087) rotate(-45)" fill="#133030"/>
    <rect id="Rectangle_23" data-name="Rectangle 23" width="0.559" height="3.913" transform="translate(8.015 32.816) rotate(-90)" fill="#133030"/>
    <rect id="Rectangle_24" data-name="Rectangle 24" width="0.559" height="3.913" transform="translate(13.451 45.381) rotate(-135)" fill="#133030"/>
    <rect id="Rectangle_25" data-name="Rectangle 25" width="0.559" height="3.913" transform="translate(35.979 22.853) rotate(-135)" fill="#133030"/>
    <rect id="Rectangle_26" data-name="Rectangle 26" width="0.559" height="3.913" transform="translate(39.874 32.816) rotate(-90)" fill="#133030"/>
    <rect id="Rectangle_27" data-name="Rectangle 27" width="0.559" height="3.913" transform="translate(35.584 42.615) rotate(-45)" fill="#133030"/>
    <rect id="Rectangle_28" data-name="Rectangle 28" width="0.559" height="3.913" transform="translate(25.621 46.51)" fill="#133030"/>
    <path id="Path_101" data-name="Path 101" d="M308.32,239.611a1.4,1.4,0,0,0-1.677,0,1.439,1.439,0,0,0-.4.469,1.4,1.4,0,1,0,2.076-.469Zm-.838,1.956a.841.841,0,0,1-.838-.838.854.854,0,0,1,.148-.475.838.838,0,1,1,.69,1.314Z" transform="translate(-281.581 -208.193)" fill="#133030"/>
    <rect id="Rectangle_29" data-name="Rectangle 29" width="5.03" height="5.03" transform="translate(23.385 8.223)" fill="#133030"/>
    <ellipse id="Ellipse_35" data-name="Ellipse 35" cx="6.707" cy="2.376" rx="6.707" ry="2.376" transform="translate(19.193 4.31)" fill="#133030"/>
    <rect id="Rectangle_30" data-name="Rectangle 30" width="1.677" height="9.502" transform="translate(25.062 21.917)" fill="#133030"/>
    <rect id="Rectangle_31" data-name="Rectangle 31" width="52.54" height="0.559" transform="translate(0 51.248)" fill="#133030"/>
    <path id="Path_102" data-name="Path 102" d="M286.148,650.379c.217,7.428-4.123,10.15-9.57,10.309q-.19.006-.378.007-.379,0-.75-.013c-4.926-.2-8.825-2.819-9.027-9.727-.209-7.149,8.664-16.437,9.33-17.124h0l.038-.039S285.932,642.951,286.148,650.379Z" transform="translate(-251.139 -510.948)" fill="#b4e2e2"/>
    <path id="Path_103" data-name="Path 103" d="M294.117,659.565l3.46-5.145-3.453,5.7.007.579q-.379,0-.75-.013l.172-7.442,0-.057.006-.011.016-.7-3.789-5.5,3.784,4.975.013.149.13-5.623-3.273-5.7,3.282,4.716-.034-11.649v0l.217,9.181,2.983-3.729-2.973,4.52.065,5.029,2.745-4.908-2.735,5.648.036,2.8,3.991-6.838-3.979,7.813Z" transform="translate(-269.069 -510.952)" fill="#133030"/>
    <path id="Path_104" data-name="Path 104" d="M934.148,650.379c.217,7.428-4.123,10.15-9.57,10.309q-.19.006-.378.007-.379,0-.75-.013c-4.926-.2-8.825-2.819-9.027-9.727-.209-7.149,8.664-16.437,9.33-17.124h0l.038-.039S933.932,642.951,934.148,650.379Z" transform="translate(-748.492 -510.948)" fill="#b4e2e2"/>
    <path id="Path_105" data-name="Path 105" d="M942.117,659.565l3.46-5.145-3.453,5.7.007.579q-.379,0-.75-.013l.172-7.442,0-.057.006-.011.016-.7-3.789-5.5,3.785,4.975.013.149.13-5.623-3.273-5.7,3.282,4.716-.034-11.649v0l.217,9.181,2.982-3.729-2.973,4.52.065,5.029,2.745-4.908-2.734,5.648.036,2.8,3.991-6.838-3.979,7.813Z" transform="translate(-766.422 -510.952)" fill="#133030"/>
  </g>
</svg>
