<svg xmlns="http://www.w3.org/2000/svg" width="281.041" height="281.041" viewBox="0 0 281.041 281.041"><path d="M331.517,627.04a140.618,140.618,0,0,1-68.105-17.58c5.864.816,12.509,1.56,19.753,2.2,8.235.728,16.889,1.1,25.721,1.1,13.225,0,25.124-1.562,35.369-4.643s19.019-7.324,26.04-12.574a58.49,58.49,0,0,0,23.794-41.258l9.648-99.319a49.239,49.239,0,0,1,2.409-10.93,25.09,25.09,0,0,1,5.143-8.744,22.864,22.864,0,0,1,8.522-5.739,33.079,33.079,0,0,1,12.219-2.048,3.163,3.163,0,0,0,1.042-.2,1.688,1.688,0,0,0,.885-1.162l2.415-9.84a12.135,12.135,0,0,0,.319-1.638c0-.725-.648-1.229-1.927-1.5-2.141-.367-5.455-.9-10.13-1.644-4.575-.724-10.092-1.459-16.4-2.186-6.2-.715-13.179-1.357-20.741-1.909-7.436-.543-15.17-.819-22.987-.819a163.935,163.935,0,0,0-28.293,2.457,87.83,87.83,0,0,0-25.4,8.4,57.634,57.634,0,0,0-19.127,15.917c-5.125,6.618-8.316,14.984-9.485,24.866l-11.256,96.591a54.871,54.871,0,0,1-4.1,16.122,32.17,32.17,0,0,1-7.474,10.653,26.691,26.691,0,0,1-10.527,5.878,46.365,46.365,0,0,1-13.1,1.777l-.087,0a140.519,140.519,0,1,1,95.866,37.782Zm.407-27.273,0-.012a68.813,68.813,0,0,0,14.1-9.065,72.424,72.424,0,0,0,10.852-11.2,53.6,53.6,0,0,0,7.233-12.436,46.416,46.416,0,0,0,3.3-12.773l9.8-99.319a65.052,65.052,0,0,1,1.849-9.979,23.8,23.8,0,0,1,5.065-9.491,27.78,27.78,0,0,1,10.527-7.173c4.527-1.9,10.667-3.006,18.247-3.282a25.853,25.853,0,0,0-9.726,3.9,25.094,25.094,0,0,0-6.751,6.763,33.99,33.99,0,0,0-4.179,8.877,50.226,50.226,0,0,0-2.011,10.388l-9.641,99.319A44.478,44.478,0,0,1,376.8,568.01a48.633,48.633,0,0,1-9,13.321,57.877,57.877,0,0,1-14.791,11.135A75.548,75.548,0,0,1,331.924,599.767Z" transform="translate(-191 -346)" fill="#2f7a79"/></svg>