<svg xmlns="http://www.w3.org/2000/svg" width="43" height="43" viewBox="0 0 43 43">
  <path id="s-logo" d="M21.5,43A21.5,21.5,0,0,1,6.3,6.3,21.5,21.5,0,1,1,36.7,36.7,21.359,21.359,0,0,1,21.5,43ZM11.533,9.09c-.64,0-1.554.83-2.716,2.467A14.455,14.455,0,0,0,6.222,19.83,16.783,16.783,0,0,0,8.2,28.57,8.393,8.393,0,0,0,11,31.542a7.07,7.07,0,0,0,3.678,1.118H14.8a9.415,9.415,0,0,0,4.674-1.4c1.571-.915,4.667-3.465,9.2-7.58A27.167,27.167,0,0,1,32.1,20.9a4.242,4.242,0,0,1,2.13-.8h.035a1.4,1.4,0,0,1,1.181.7,3.054,3.054,0,0,1,.432,1.76,10.251,10.251,0,0,1-.783,3.619A9.157,9.157,0,0,1,33.227,29.2c-.45.462-.68.819-.685,1.063a.693.693,0,0,0,.2.465.593.593,0,0,0,.437.233h.012a2,2,0,0,0,1.228-.784,8.573,8.573,0,0,0,1.322-1.9,14.765,14.765,0,0,0,1.553-6.486,14.356,14.356,0,0,0-2.322-8.573,7.67,7.67,0,0,0-6.406-3.637h-.131a10.494,10.494,0,0,0-5.424,1.753,56.454,56.454,0,0,0-6.822,5.47c-2.421,2.17-4.062,3.559-4.876,4.127a3.926,3.926,0,0,1-2.159.843H9.111a1.257,1.257,0,0,1-1.133-.649,3.719,3.719,0,0,1-.348-1.892A11.092,11.092,0,0,1,8.773,14.64a12.1,12.1,0,0,1,2.894-3.893,1.389,1.389,0,0,0,.6-.893.724.724,0,0,0-.216-.53.7.7,0,0,0-.5-.234h-.014Z" transform="translate(0 0)" fill="#2f7a79"/>
</svg>
