<svg xmlns="http://www.w3.org/2000/svg" width="252.697" height="155.936" viewBox="0 0 252.697 155.936">
  <g id="what-i-do" transform="translate(0 0.002)">
    <rect id="Rectangle_32" data-name="Rectangle 32" width="191.291" height="9.709" transform="matrix(0.86, 0.51, -0.51, 0.86, 88.128, -0.002)" fill="#f2f2f2"/>
    <rect id="Rectangle_33" data-name="Rectangle 33" width="191.291" height="9.709" transform="matrix(0.86, 0.51, -0.51, 0.86, 52.36, 8.174)" fill="#f2f2f2"/>
    <rect id="Rectangle_34" data-name="Rectangle 34" width="191.291" height="9.709" transform="matrix(0.86, 0.51, -0.51, 0.86, 20.679, 17.116)" fill="#f2f2f2"/>
    <path id="Path_131" data-name="Path 131" d="M51.525,0A51.525,51.525,0,1,1,0,51.525,51.525,51.525,0,0,1,51.525,0Z" transform="translate(93.98 11.263)" fill="#133030"/>
    <path id="Path_106" data-name="Path 106" d="M648.211,373.884A9.185,9.185,0,1,1,657.4,364.7,9.185,9.185,0,0,1,648.211,373.884Zm0-17.922a8.737,8.737,0,1,0,8.737,8.737,8.737,8.737,0,0,0-8.737-8.737Z" transform="translate(-502.706 -301.688)" fill="#b4e2e2" opacity="0.3"/>
    <path id="Path_107" data-name="Path 107" d="M624.058,358.02a17.474,17.474,0,1,1,17.474-17.474A17.473,17.473,0,0,1,624.058,358.02Zm0-34.5a17.025,17.025,0,1,0,17.025,17.025A17.025,17.025,0,0,0,624.058,323.521Z" transform="translate(-478.553 -277.535)" fill="#b4e2e2" opacity="0.3"/>
    <path id="Path_108" data-name="Path 108" d="M603.168,344.3a24.642,24.642,0,1,1,24.642-24.642A24.642,24.642,0,0,1,603.168,344.3Zm0-48.836a24.194,24.194,0,1,0,24.194,24.194A24.194,24.194,0,0,0,603.168,295.463Z" transform="translate(-457.663 -256.645)" fill="#b4e2e2" opacity="0.3"/>
    <path id="Path_109" data-name="Path 109" d="M575.75,326.289A34.051,34.051,0,1,1,609.8,292.238,34.09,34.09,0,0,1,575.75,326.289Zm0-67.654a33.6,33.6,0,1,0,33.6,33.6,33.641,33.641,0,0,0-33.6-33.6Z" transform="translate(-430.245 -229.227)" fill="#b4e2e2" opacity="0.3"/>
    <path id="Path_110" data-name="Path 110" d="M552.9,311.283a41.892,41.892,0,1,1,41.892-41.892A41.939,41.939,0,0,1,552.9,311.283Zm0-83.335a41.444,41.444,0,1,0,41.444,41.444A41.491,41.491,0,0,0,552.9,227.948Z" transform="translate(-407.398 -206.38)" fill="#f2fafa" opacity="0.3"/>
    <circle id="Ellipse_37" data-name="Ellipse 37" cx="4.256" cy="4.256" r="4.256" transform="translate(141.248 58.531)" fill="#f2fafa" opacity="0.3"/>
    <circle id="Ellipse_38" data-name="Ellipse 38" cx="4.256" cy="4.256" r="4.256" transform="translate(152.225 70.852)" fill="#f2fafa" opacity="0.3"/>
    <circle id="Ellipse_39" data-name="Ellipse 39" cx="4.256" cy="4.256" r="4.256" transform="translate(122.431 69.06)" fill="#b4e2e2" opacity="0.3"/>
    <circle id="Ellipse_40" data-name="Ellipse 40" cx="2.016" cy="2.016" r="2.016" transform="translate(143.489 60.771)" fill="#133030"/>
    <circle id="Ellipse_41" data-name="Ellipse 41" cx="2.016" cy="2.016" r="2.016" transform="translate(124.671 71.3)" fill="#2f2e41"/>
    <circle id="Ellipse_42" data-name="Ellipse 42" cx="2.016" cy="2.016" r="2.016" transform="translate(154.466 73.316)" fill="#2f2e41"/>
    <circle id="Ellipse_43" data-name="Ellipse 43" cx="2.016" cy="2.016" r="2.016" transform="translate(237.577 38.145)" fill="#2f7a79"/>
    <path id="Path_111" data-name="Path 111" d="M568.643,178.956H568.2V155.882h88.936v.448H568.643Z" transform="translate(-423.026 -116.057)" fill="#133030"/>
    <path id="Path_112" data-name="Path 112" d="M1026.267,290.881a5.824,5.824,0,1,1,5.824-5.824A5.825,5.825,0,0,1,1026.267,290.881Zm0-11.2a5.376,5.376,0,1,0,5.376,5.376A5.377,5.377,0,0,0,1026.267,279.68Z" transform="translate(-786.674 -244.895)" fill="#133030"/>
    <circle id="Ellipse_44" data-name="Ellipse 44" cx="2.016" cy="2.016" r="2.016" transform="translate(224.136 96.166)" fill="#2f7a79"/>
    <path id="Path_113" data-name="Path 113" d="M973.658,517.977a5.824,5.824,0,1,1,5.824-5.824A5.825,5.825,0,0,1,973.658,517.977Zm0-11.2a5.376,5.376,0,1,0,5.376,5.376,5.377,5.377,0,0,0-5.376-5.376Z" transform="translate(-747.506 -413.97)" fill="#133030"/>
    <circle id="Ellipse_45" data-name="Ellipse 45" cx="2.016" cy="2.016" r="2.016" transform="translate(62.17 47.554)" fill="#2f7a79"/>
    <path id="Path_114" data-name="Path 114" d="M339.717,327.707a5.825,5.825,0,1,1,5.824-5.824A5.824,5.824,0,0,1,339.717,327.707Zm0-11.2a5.376,5.376,0,1,0,5.376,5.376,5.376,5.376,0,0,0-5.376-5.376Z" transform="translate(-275.532 -272.313)" fill="#133030"/>
    <path id="Path_115" data-name="Path 115" d="M330.261,217.117h-.448v-22.63l-56.68-.893.007-.448,57.122.9Z" transform="translate(-203.349 -143.801)" fill="#133030"/>
    <path id="Path_116" data-name="Path 116" d="M675.892,317.932H611.6V294.858h.448v22.626h63.845Z" transform="translate(-455.34 -219.526)" fill="#133030"/>
    <rect id="Rectangle_35" data-name="Rectangle 35" width="24.642" height="1.568" transform="translate(227.272 50.69)" fill="#133030"/>
    <rect id="Rectangle_36" data-name="Rectangle 36" width="24.642" height="1.568" transform="translate(227.272 55.171)" fill="#133030"/>
    <rect id="Rectangle_37" data-name="Rectangle 37" width="24.642" height="1.568" transform="translate(227.272 59.651)" fill="#133030"/>
    <rect id="Rectangle_38" data-name="Rectangle 38" width="24.642" height="1.568" transform="translate(213.831 108.711)" fill="#133030"/>
    <rect id="Rectangle_39" data-name="Rectangle 39" width="24.642" height="1.568" transform="translate(213.831 113.192)" fill="#133030"/>
    <rect id="Rectangle_40" data-name="Rectangle 40" width="24.642" height="1.568" transform="translate(213.831 117.672)" fill="#133030"/>
    <rect id="Rectangle_41" data-name="Rectangle 41" width="24.642" height="1.568" transform="translate(51.865 60.323)" fill="#133030"/>
    <rect id="Rectangle_42" data-name="Rectangle 42" width="24.642" height="1.568" transform="translate(51.865 64.803)" fill="#133030"/>
    <rect id="Rectangle_43" data-name="Rectangle 43" width="24.642" height="1.568" transform="translate(51.865 69.284)" fill="#133030"/>
    <ellipse id="Ellipse_46" data-name="Ellipse 46" cx="49.06" cy="1.568" rx="49.06" ry="1.568" transform="translate(98.461 145.452)" fill="#f2f2f2"/>
    <rect id="Rectangle_44" data-name="Rectangle 44" width="165.558" height="0.511" transform="translate(0 155.423)" fill="#133030"/>
    <path id="Path_117" data-name="Path 117" d="M179.456,322.689s2.345,6.674.9,7.7,4.87,9.413,4.87,9.413l7.576-2.054-4.149-7.017s-.541-7.017-.541-8.043S179.456,322.689,179.456,322.689Z" transform="translate(-160.552 -276.91)" fill="#ffb8b8"/>
    <path id="Path_118" data-name="Path 118" d="M179.456,322.689s2.345,6.674.9,7.7,4.87,9.413,4.87,9.413l7.576-2.054-4.149-7.017s-.541-7.017-.541-8.043S179.456,322.689,179.456,322.689Z" transform="translate(-160.552 -276.91)" opacity="0.1"/>
    <path id="Path_119" data-name="Path 119" d="M163.163,495.524s-.685,8.557,0,13.006,1.711,16.771,1.711,16.771,0,23.275,3.765,23.617,6.5.685,6.845-.685-1.711-2.054-.685-2.738,1.369-3.08,0-5.819,0-30.462,0-30.462l6.5,17.456s.685,14.376,1.369,16.429-.685,5.819,1.711,6.161,5.134-1.711,6.5-2.4-2.054-.685-1.369-1.027,2.738-1.369,2.054-1.711-1.369-16.772-1.369-16.772-1.883-35.083-4.278-36.452a2.938,2.938,0,0,0-3.936.989Z" transform="translate(-148.195 -402.168)" fill="#2f2e41"/>
    <path id="Path_120" data-name="Path 120" d="M184.174,713.865V716.6s-3.08,7.443,0,7.443,5.476.771,5.476-.255v-9.241Z" transform="translate(-163.046 -568.483)" fill="#2f2e41"/>
    <path id="Path_121" data-name="Path 121" d="M251.247,713.846v2.738s3.08,7.443,0,7.443-5.476.771-5.476-.255V714.53Z" transform="translate(-209.923 -568.469)" fill="#2f2e41"/>
    <circle id="Ellipse_47" data-name="Ellipse 47" cx="6.161" cy="6.161" r="6.161" transform="translate(17.535 38.421)" fill="#ffb8b8"/>
    <path id="Path_122" data-name="Path 122" d="M188.848,364.209s1.711,5.134,4.45,4.107l2.738-1.027,4.792,32.858s-3.765,5.476-9.241,2.054S188.848,364.209,188.848,364.209Z" transform="translate(-167.035 -308.161)" fill="#d0cde1"/>
    <path id="Path_123" data-name="Path 123" d="M209.6,350.715l1.54-3.252s9.07,4.278,10.439,5.648a5.345,5.345,0,0,1,1.369,3.423l-2.4,8.557s.685,18.825.685,19.51,2.4,4.45.685,3.081-2.054-2.738-3.423-.685a25.1,25.1,0,0,1-4.45,4.45Z" transform="translate(-182.994 -295.694)" fill="#2f7a79"/>
    <path id="Path_124" data-name="Path 124" d="M238.954,456.647l-1.027,9.584s-6.161,5.476-4.792,5.819a1.894,1.894,0,0,0,2.054-1.027s2.4,2.4,3.765,1.027,4.792-14.376,4.792-14.376Z" transform="translate(-200.369 -376.982)" fill="#ffb8b8"/>
    <path id="Path_125" data-name="Path 125" d="M177.9,285.189a6.852,6.852,0,0,0-3.979.663,5.825,5.825,0,0,0-1.375,1.346c-1.122,1.418-2.091,3.2-1.674,4.961l.484-.189a3.168,3.168,0,0,1-.306,1.357c.068-.2.3.122.235.323l-.533,1.749a1.646,1.646,0,0,1,2.1,1.253c.061-2.031.272-4.36,1.919-5.549a6.639,6.639,0,0,1,2.894-.945,5.822,5.822,0,0,1,2.806.014,2.018,2.018,0,0,1,1.453,2.145.955.955,0,0,1,1.077.531,2.788,2.788,0,0,1,.221,1.276c.439.31.939-.306,1.119-.814a7.343,7.343,0,0,0,.568-3.7,2.823,2.823,0,0,0-2.5-2.434.877.877,0,0,0,.228-.617l-1.041-.088a1.151,1.151,0,0,0,.688-.362C181.858,286.567,178.572,285.213,177.9,285.189Z" transform="translate(-154.069 -249.315)" fill="#2f2e41"/>
    <path id="Path_126" data-name="Path 126" d="M156.618,348.68s-2.786-2.73-3.789-2.563-2.372,2.563-2.372,2.563-8.215,2.738-7.872,5.476,4.107,16.087,4.107,16.087,3.08,16.087.342,17.8,13.006,6.161,13.349,4.107,1.027-22.59,0-25.671S156.618,348.68,156.618,348.68Z" transform="translate(-133.093 -294.686)" fill="#2f7a79"/>
    <path id="Path_127" data-name="Path 127" d="M154.672,459.849l4.792,2.054s9.241,1.369,9.241-2.4-9.241-1.711-9.241-1.711l-3.081-.985Z" transform="translate(-142.1 -377.104)" fill="#ffb8b8"/>
    <path id="Path_128" data-name="Path 128" d="M244.43,377.606h4.232s2.956,13.006,3.3,14.376,1.027,7.872.685,7.872-7.188-1.369-7.188-.342Z" transform="translate(-208.926 -318.135)" fill="#2f7a79"/>
    <path id="Path_129" data-name="Path 129" d="M136.855,369.568l-4.107,1.027-3.08,18.141s-1.027,4.792.685,5.134,6.5,3.081,6.5,3.081.685-5.134,2.054-5.134l-3.423-2.738,2.054-11.98Z" transform="translate(-123.257 -312.151)" fill="#2f7a79"/>
    <path id="Path_130" data-name="Path 130" d="M595.108,694.811h-6.643v-6.643h6.643Zm-6.132-.511H594.6v-5.621h-5.621Z" transform="translate(-465.063 -549.352)" fill="#133030"/>
    <circle id="Ellipse_48" data-name="Ellipse 48" cx="2.555" cy="2.555" r="2.555" transform="translate(131.578 140.349)" fill="#2f7a79"/>
  </g>
</svg>
