<svg id="what-i-do-for-fun" xmlns="http://www.w3.org/2000/svg" width="234.225" height="194.86" viewBox="0 0 234.225 194.86">
  <path id="Path_43" data-name="Path 43" d="M458.017,779.7l-.449,6.286v3.592s-.9,9.429,7.633,8.531,1.347-14.368,1.347-14.368l-.9-2.694Z" transform="translate(-374.546 -603.306)" fill="#2f2e41"/>
  <path id="Path_44" data-name="Path 44" d="M500.115,721.576s-2.694.9-1.8,6.735a21.053,21.053,0,0,0,4.49,2.694,7.569,7.569,0,0,1,2.277,1.542A17.6,17.6,0,0,0,513.444,737c2.129.454,4.084.4,4.631-1.057,1.347-3.592-5.388-6.735-5.388-6.735l-5.388-5.837Z" transform="translate(-405.419 -559.105)" fill="#2f2e41"/>
  <path id="Path_45" data-name="Path 45" d="M616.41,470.346s8.082,10.776,4.041,11.225-7.184-9.429-7.184-9.429Z" transform="translate(-492.977 -368.043)" fill="#fbbebe"/>
  <path id="Path_46" data-name="Path 46" d="M459.359,442.223l-.9,31.431s-1.8,5.837-1.347,8.531c0,0-.761,3.044-.882,4.228-.01.1-.016.19-.016.262,0,.9-3.592,16.164-1.347,26.941,0,0-2.245,8.531.449,10.776l8.531.449-.449-16.614,4.49-25.145,2.245-6.735s-3.592,18.859-2.694,25.145c0,0-1.8,5.388-1.347,8.531,0,0,.449,4.041,8.082,1.347l1.347-7.184,10.922-56.318-10.473-4.748Z" transform="translate(-371.847 -346.655)" fill="#133030"/>
  <circle id="Ellipse_17" data-name="Ellipse 17" cx="8.082" cy="8.082" r="8.082" transform="translate(99.635 30.46)" fill="#fbbebe"/>
  <path id="Path_47" data-name="Path 47" d="M410.73,165.621l-3.143,6.735,8.082,5.388,4.041-7.184Z" transform="translate(-309.973 -125.956)" fill="#fbbebe"/>
  <path id="Path_48" data-name="Path 48" d="M484.752,234.754l-.129-1.89s-5.928-2.448-8.512-4.993l-2.135,1.5L461.4,235.2l4.49,47.146s8.082-.9,13.021,4.49,13.47-2.245,13.47-2.245V271.573l-2.245-14.818,2.245-16.165Z" transform="translate(-377.484 -183.639)" fill="#2f7a79"/>
  <path id="Path_49" data-name="Path 49" d="M564.812,279.111l3.143.449s1.32,2.639.911,11.4q-.007.136-.013.274a50.037,50.037,0,0,0-.005,5.261c.271,4.97,1.352,6.863,1.352,6.863l7.633,22.451-4.939,2.694-7.184-13.919-4.939-28.737Z" transform="translate(-453.054 -222.608)" fill="#2f7a79"/>
  <path id="Path_50" data-name="Path 50" d="M547.609,164.568a4.608,4.608,0,0,0-.212-1.65,5.388,5.388,0,0,0-2.554-2.481,16.019,16.019,0,0,0-4.635-2.074,6.163,6.163,0,0,0-4.889.779,8.666,8.666,0,0,0-2.112,2.485,13.874,13.874,0,0,0-1.618,3.154.436.436,0,0,0-.025.273.487.487,0,0,0,.192.206c1.11.829,1.943,1.194,1.182,2.351,1.837-1.895,3.144-2.426,4.981-4.321-.215.2.107.557.4.544s.567-.193.859-.168c.426.037.681.47,1,.757s.979.323,1.033-.1l1.118,1.51a1.282,1.282,0,0,0,.564-.412l1.2,1.821.507-.543a9.554,9.554,0,0,1,.606,1.07c.942-.781,1.229,1.153,1.23,1.611C547.459,169.227,547.6,165.4,547.609,164.568Z" transform="translate(-430.833 -130.641)" fill="#2f2e41"/>
  <path id="Path_51" data-name="Path 51" d="M498.294,459.1s8.082,10.776,4.041,11.225-7.184-9.429-7.184-9.429Z" transform="translate(-403.149 -359.488)" fill="#fbbebe"/>
  <path id="Path_52" data-name="Path 52" d="M438.96,258.936l-1.8-.449s-4.939,6.735-5.837,13.919-1.8,16.165-1.8,16.165L444.8,310.124l5.388-4.041-11.674-20.206,4.041-5.837Z" transform="translate(-353.245 -206.923)" fill="#2f7a79"/>
  <path id="Path_53" data-name="Path 53" d="M364.3,339.516l9.468,16.551-8.531-17.961Z" transform="translate(-277.055 -257.133)" opacity="0.1"/>
  <path id="Path_54" data-name="Path 54" d="M409.9,197.154h-.479V24.479H231V24H409.9Z" transform="translate(-175.677 -18.252)" fill="#133030"/>
  <rect id="Rectangle_14" data-name="Rectangle 14" width="51.012" height="10.298" transform="translate(124.537 0.958)" fill="#2f7a79"/>
  <rect id="Rectangle_15" data-name="Rectangle 15" width="19.638" height="10.298" transform="translate(63.705 0.958)" fill="#2f7a79"/>
  <circle id="Ellipse_18" data-name="Ellipse 18" cx="5.987" cy="5.987" r="5.987" transform="translate(39.277 46.222)" fill="#f2fafa"/>
  <circle id="Ellipse_19" data-name="Ellipse 19" cx="11.256" cy="11.256" r="11.256" transform="translate(34.008 80.949)" fill="#f2fafa"/>
  <circle id="Ellipse_20" data-name="Ellipse 20" cx="15.088" cy="15.088" r="15.088" transform="translate(30.176 120.226)" fill="#f2fafa"/>
  <circle id="Ellipse_21" data-name="Ellipse 21" cx="2.395" cy="2.395" r="2.395" transform="translate(48.857 139.625)" fill="#b4e2e2"/>
  <circle id="Ellipse_22" data-name="Ellipse 22" cx="1.437" cy="1.437" r="1.437" transform="translate(40.235 135.314)" fill="#b4e2e2"/>
  <circle id="Ellipse_23" data-name="Ellipse 23" cx="1.437" cy="1.437" r="1.437" transform="translate(43.827 127.65)" fill="#b4e2e2"/>
  <path id="Path_55" data-name="Path 55" d="M415.357,487.527a2.874,2.874,0,1,1,2.874-2.874A2.874,2.874,0,0,1,415.357,487.527Zm0-5.269a2.395,2.395,0,1,0,2.395,2.395A2.395,2.395,0,0,0,415.357,482.258Z" transform="translate(-340.28 -376.738)" fill="#133030"/>
  <path id="Path_56" data-name="Path 56" d="M366.3,180.056H361.57v-4.728H366.3Zm-4.364-.364h4v-4h-4Z" transform="translate(-301.56 -143.68)" fill="#133030"/>
  <path id="Path_57" data-name="Path 57" d="M172.715,318.93l-3.225-3.457,3.457-3.225,3.225,3.457ZM170,315.49l2.729,2.925,2.925-2.729-2.729-2.925Z" transform="translate(-155.482 -247.808)" fill="#133030"/>
  <circle id="Ellipse_24" data-name="Ellipse 24" cx="5.987" cy="5.987" r="5.987" transform="translate(97.713)" fill="#b4e2e2"/>
  <rect id="Rectangle_16" data-name="Rectangle 16" width="103.701" height="0.479" transform="translate(0 18.441)" fill="#133030"/>
  <circle id="Ellipse_25" data-name="Ellipse 25" cx="5.987" cy="5.987" r="5.987" transform="translate(12.454 12.693)" fill="#f2fafa"/>
  <rect id="Rectangle_17" data-name="Rectangle 17" width="58.676" height="40.953" transform="translate(124.701 85.455)" fill="#2f7a79"/>
  <path id="Path_58" data-name="Path 58" d="M712.841,404.432H653.686V363h59.155Zm-58.676-.479h58.2V363.479h-58.2Z" transform="translate(-523.716 -286.406)" fill="#133030"/>
</svg>
