<svg xmlns="http://www.w3.org/2000/svg" width="76" height="76" viewBox="0 0 76 76">
  <g id="Group_71" data-name="Group 71" transform="translate(19 24)">
    <circle id="Ellipse_71" data-name="Ellipse 71" cx="38" cy="38" r="38" transform="translate(-19 -24)" fill="#2f7a79"/>
    <g id="Group_6" data-name="Group 6" transform="translate(-162 -204)">
      <g id="Group_1" data-name="Group 1" transform="translate(163 203)">
        <circle id="Ellipse_2" data-name="Ellipse 2" cx="24.057" cy="24.057" r="24.057" transform="translate(0 0)" fill="#2f7a79"/>
        <circle id="Ellipse_3" data-name="Ellipse 3" cx="19.78" cy="19.78" r="19.78" transform="translate(4.277 4.277)" fill="#fff"/>
        <path id="Subtraction_1" data-name="Subtraction 1" d="M20.91,41.819a21.064,21.064,0,0,1-4.214-.425,20.8,20.8,0,0,1-7.477-3.146,20.97,20.97,0,0,1-7.576-9.2A20.8,20.8,0,0,1,.425,25.124a21.113,21.113,0,0,1,0-8.428A20.8,20.8,0,0,1,3.571,9.219a20.971,20.971,0,0,1,9.2-7.576A20.8,20.8,0,0,1,16.7.425a21.113,21.113,0,0,1,8.428,0A20.8,20.8,0,0,1,32.6,3.571a20.97,20.97,0,0,1,7.576,9.2A20.8,20.8,0,0,1,41.394,16.7a21.113,21.113,0,0,1,0,8.428A20.8,20.8,0,0,1,38.248,32.6a20.97,20.97,0,0,1-9.2,7.576,20.8,20.8,0,0,1-3.925,1.218A21.064,21.064,0,0,1,20.91,41.819ZM7.355,32.428a.882.882,0,0,0-.628.263.853.853,0,0,0-.285.609,2.288,2.288,0,0,0,.74,1.417,14.216,14.216,0,0,0,2.26,1.9A17.576,17.576,0,0,0,19.5,39.773c.171,0,.344,0,.516,0a20.106,20.106,0,0,0,10.108-2.406,10.189,10.189,0,0,0,3.613-3.412,8.579,8.579,0,0,0,1.358-4.47,11.334,11.334,0,0,0-1.7-5.83c-1.111-1.909-4.211-5.672-9.213-11.185A32.99,32.99,0,0,1,20.8,8.313a7.763,7.763,0,0,1-.738-1.438,3.327,3.327,0,0,1-.233-1.193,1.614,1.614,0,0,1,.22-.8,1.97,1.97,0,0,1,.628-.633,3.024,3.024,0,0,1,.908-.394,4.524,4.524,0,0,1,1.126-.131h.1a11.156,11.156,0,0,1,2.158.257,14.041,14.041,0,0,1,2.241.7A13.39,13.39,0,0,1,29.276,5.7a9.312,9.312,0,0,1,1.611,1.246c.563.547,1,.827,1.292.832h.012a.846.846,0,0,0,.554-.238.723.723,0,0,0,.284-.531,1.265,1.265,0,0,0-.233-.677,4.5,4.5,0,0,0-.72-.829A10.387,10.387,0,0,0,29.765,3.9a17.964,17.964,0,0,0-7.884-1.888c-.145,0-.291,0-.434,0A17.265,17.265,0,0,0,11.459,4.83a9.324,9.324,0,0,0-4.421,7.787,12.637,12.637,0,0,0,2.129,6.752,68.714,68.714,0,0,0,6.65,8.293c2.637,2.941,4.325,4.936,5.017,5.927A6.723,6.723,0,0,1,21.612,35a3.366,3.366,0,0,1,.246,1.256,1.677,1.677,0,0,1-.194.789,1.537,1.537,0,0,1-.551.563,2.821,2.821,0,0,1-.909.338,6.32,6.32,0,0,1-1.266.113H18.77a12.413,12.413,0,0,1-2.779-.372,14.886,14.886,0,0,1-2.8-1.019A15.644,15.644,0,0,1,10.6,35.12a14.036,14.036,0,0,1-2.144-1.968,1.684,1.684,0,0,0-1.085-.724Z" transform="translate(45.027 3.208) rotate(90)" fill="#2f7a79"/>
      </g>
    </g>
  </g>
</svg>
